<?xml version="1.0" encoding="utf-8"?>
<!-- Generator: Adobe Illustrator 21.0.0, SVG Export Plug-In . SVG Version: 6.00 Build 0)  -->
<svg version="1.1" id="Layer_1" xmlns="http://www.w3.org/2000/svg" xmlns:xlink="http://www.w3.org/1999/xlink" x="0px" y="0px"
	 viewBox="0 0 50 50" style="enable-background:new 0 0 50 50;" xml:space="preserve">
<style type="text/css">
	.st0{fill:none;stroke:#E0E0E0;stroke-width:0.5;stroke-linecap:round;stroke-linejoin:round;stroke-miterlimit:10;}
	.st1{fill:none;stroke:#E0E0E0;stroke-width:0.25;stroke-miterlimit:10;}
</style>
<g>
	<line class="st0" x1="5.9" y1="5" x2="43.2" y2="5"/>
	<line class="st0" x1="5.9" y1="26.1" x2="43.2" y2="26.1"/>
	<rect x="7.9" y="5.4" class="st0" width="33.3" height="20.8"/>
	<line class="st0" x1="24.3" y1="26.6" x2="24.3" y2="45.1"/>
	<polyline class="st0" points="16.1,45.1 20.2,41.4 24.3,37.7 28.3,41.4 32.4,45.1 	"/>
	<circle class="st1" cx="12.5" cy="21.1" r="1"/>
	<circle class="st1" cx="15.8" cy="15" r="1"/>
	<circle class="st1" cx="20.7" cy="18.7" r="1"/>
	<circle class="st1" cx="24.7" cy="13" r="1"/>
	<circle class="st1" cx="29.2" cy="17.2" r="1"/>
	<circle class="st1" cx="34.5" cy="10.9" r="1"/>
	<line class="st1" x1="13" y1="20.3" x2="15.1" y2="15.8"/>
	<line class="st1" x1="16.4" y1="15.5" x2="19.9" y2="18.1"/>
	<line class="st1" x1="21.4" y1="18.1" x2="24" y2="13.7"/>
	<line class="st1" x1="25.3" y1="13.5" x2="28.2" y2="16.5"/>
	<line class="st1" x1="29.9" y1="16.6" x2="34" y2="11.8"/>
</g>
</svg>
