<?xml version="1.0" encoding="utf-8"?>
<!-- Generator: Adobe Illustrator 21.0.0, SVG Export Plug-In . SVG Version: 6.00 Build 0)  -->
<svg version="1.1" id="Layer_1" xmlns="http://www.w3.org/2000/svg" xmlns:xlink="http://www.w3.org/1999/xlink" x="0px" y="0px"
	 viewBox="0 0 50 50" style="enable-background:new 0 0 50 50;" xml:space="preserve">
<style type="text/css">
	.st0{fill:none;stroke:#E0E0E0;stroke-width:0.5;stroke-linecap:round;stroke-linejoin:round;stroke-miterlimit:10;}
</style>
<g>
	<polygon class="st0" points="33.2,46.7 15,46.7 12.4,23.2 35.7,23.2 	"/>
	<g>
		<polyline class="st0" points="26.6,23 29.9,11.2 34.8,12.6 31.9,22.9 		"/>
		<polyline class="st0" points="30.2,11 32.5,7.2 34.7,3.4 34.7,7.8 34.6,12.2 		"/>
		<line class="st0" x1="35.1" y1="1.9" x2="34.5" y2="4.1"/>
	</g>
	<line class="st0" x1="15.8" y1="27" x2="17.5" y2="42.2"/>
	<polygon class="st0" points="22.4,22.8 15.6,22.9 12.6,4.2 19.3,4 	"/>
	<line class="st0" x1="13.5" y1="8" x2="15.9" y2="7.9"/>
	<line class="st0" x1="14.1" y1="11.4" x2="16.5" y2="11.3"/>
	<line class="st0" x1="14.6" y1="15.2" x2="17" y2="15.1"/>
	<line class="st0" x1="15" y1="18.8" x2="17.4" y2="18.7"/>
</g>
</svg>
