<?xml version="1.0" encoding="utf-8"?>
<!-- Generator: Adobe Illustrator 21.0.0, SVG Export Plug-In . SVG Version: 6.00 Build 0)  -->
<svg version="1.1" id="Layer_1" xmlns="http://www.w3.org/2000/svg" xmlns:xlink="http://www.w3.org/1999/xlink" x="0px" y="0px"
	 viewBox="0 0 50 50" style="enable-background:new 0 0 50 50;" xml:space="preserve">
<style type="text/css">
	.st0{fill:none;stroke:#E0E0E0;stroke-width:0.5;stroke-linecap:round;stroke-linejoin:round;stroke-miterlimit:10;}
	.st1{fill:#E0E0E0;}
</style>
<g>
	<path class="st0" d="M9.8,45h28.9l-9.3-21v-7.4h2.3c0.7,0,1.3-0.6,1.3-1.3c0-0.7-0.6-1.3-1.3-1.3H16.9c-0.7,0-1.3,0.6-1.3,1.3
		c0,0.7,0.6,1.3,1.3,1.3h2.3v7.4L9.8,45z"/>
	<line class="st0" x1="38.7" y1="45" x2="29.4" y2="23.9"/>
	<line class="st0" x1="16.6" y1="30.3" x2="31.9" y2="30.3"/>
	<circle class="st1" cx="24.2" cy="40.5" r="0.5"/>
	<circle class="st1" cx="27.8" cy="37.4" r="0.5"/>
	
		<ellipse transform="matrix(4.185194e-02 -0.9991 0.9991 4.185194e-02 -5.3589 62.7642)" class="st1" cx="30" cy="34.2" rx="0.5" ry="0.5"/>
	<circle class="st1" cx="31.6" cy="40.6" r="0.5"/>
	<circle class="st1" cx="23.4" cy="33.9" r="0.5"/>
	<circle class="st1" cx="25.8" cy="10.7" r="1.2"/>
	<circle class="st1" cx="29.2" cy="7.6" r="0.8"/>
	<circle class="st1" cx="26.9" cy="3.9" r="0.9"/>
</g>
</svg>
